<svg version="1.1" xmlns="http://www.w3.org/2000/svg" viewBox="0 0 284.43072322845455 104.45566607040601" width="284.43072322845455" height="104.45566607040601"><!-- svg-source:excalidraw --><metadata></metadata><defs><style class="style-fonts">
      </style></defs><g stroke-linecap="round"><g transform="translate(10.133278502821895 93.66227578741749) rotate(0 131.60000610351562 -40.399993896484375)"><path d="M0.87 -1.19 C19.53 -14.41, 68.77 -72.36, 112.3 -80.38 C155.82 -88.39, 236.92 -54.27, 262.02 -49.31 M-0.13 0.79 C18.37 -12.69, 67.43 -73.63, 111.5 -82.28 C155.57 -90.92, 239.04 -56.51, 264.3 -51.07" stroke="#1e1e1e" stroke-width="2" fill="none"></path></g><g transform="translate(10.133278502821895 93.66227578741749) rotate(0 131.60000610351562 -40.399993896484375)"><path d="M239.34 -49.65 C245.53 -49.81, 256.4 -52.73, 264.3 -51.07 M239.34 -49.65 C249.35 -49.59, 259.53 -51.62, 264.3 -51.07" stroke="#1e1e1e" stroke-width="2" fill="none"></path></g><g transform="translate(10.133278502821895 93.66227578741749) rotate(0 131.60000610351562 -40.399993896484375)"><path d="M244.26 -66.03 C248.69 -60.79, 257.95 -58.35, 264.3 -51.07 M244.26 -66.03 C252.31 -59.57, 260.57 -55.2, 264.3 -51.07" stroke="#1e1e1e" stroke-width="2" fill="none"></path></g></g><mask></mask></svg>