<svg version="1.1" xmlns="http://www.w3.org/2000/svg" viewBox="0 0 359.64766700267785 98.70567357821795" width="359.64766700267785" height="98.70567357821795"><!-- svg-source:excalidraw --><metadata></metadata><defs><style class="style-fonts">
      </style></defs><g stroke-linecap="round"><g transform="translate(348.77825046069916 43.61212268269094) rotate(0 -168.79998779296875 6.400032043457031)"><path d="M0.87 -1.19 C-29.8 -6.14, -127.1 -38.49, -183.7 -30.78 C-240.31 -23.06, -313.08 32.67, -338.78 45.09 M-0.13 0.79 C-30.97 -4.42, -128.44 -39.76, -184.5 -32.68 C-240.56 -25.59, -310.96 30.42, -336.5 43.33" stroke="#1e1e1e" stroke-width="2" fill="none"></path></g><g transform="translate(348.77825046069916 43.61212268269094) rotate(0 -168.79998779296875 6.400032043457031)"><path d="M-321.04 23.68 C-328.27 30.71, -330.64 34.69, -336.5 43.33 M-321.04 23.68 C-326.89 31.91, -332.51 38.11, -336.5 43.33" stroke="#1e1e1e" stroke-width="2" fill="none"></path></g><g transform="translate(348.77825046069916 43.61212268269094) rotate(0 -168.79998779296875 6.400032043457031)"><path d="M-312.03 38.22 C-322.08 40.56, -327.39 39.77, -336.5 43.33 M-312.03 38.22 C-321.37 40.74, -330.52 41.26, -336.5 43.33" stroke="#1e1e1e" stroke-width="2" fill="none"></path></g></g><mask></mask></svg>