<svg width="457" height="457" viewBox="0 0 457 457" fill="none" xmlns="http://www.w3.org/2000/svg">
<rect x="228.396" width="323" height="323" rx="12" transform="rotate(45 228.396 0)" fill="#FFEDED"/>
<path d="M196.142 207.558C220.757 195.786 240.021 175.808 251.08 150.837C243.945 143.345 234.67 137.994 224.681 134.784L219.33 133C218.973 133.713 218.617 134.784 218.617 135.497C210.055 159.755 192.575 179.376 169.03 190.435C152.621 198.283 140.491 212.552 134.784 229.676L133 235.027C133.713 235.383 134.784 235.74 135.497 235.74C142.275 238.237 149.053 241.448 155.474 245.372C164.393 229.319 178.662 215.763 196.142 207.558Z" fill="url(#paint0_linear_4_2)"/>
<path d="M299.596 208.985C286.397 228.962 268.203 245.015 245.729 255.717C227.535 264.279 213.622 280.332 207.201 299.596L205.417 305.66C212.195 311.725 220.4 316.363 229.319 319.216L234.67 321C235.027 320.287 235.383 319.216 235.383 318.503C243.945 294.245 261.425 274.624 284.97 263.566C301.379 255.717 313.865 241.448 319.216 224.325L321 218.973C313.508 216.833 306.374 213.266 299.596 208.985Z" fill="url(#paint1_linear_4_2)"/>
<path d="M191.148 287.11C200.066 265.706 216.476 248.226 237.524 238.237C256.788 228.962 272.841 214.693 283.899 197.213C275.695 189.364 268.917 180.446 263.922 169.744C250.723 194.002 230.032 213.622 204.704 225.751C190.078 232.529 178.306 244.302 171.171 258.571C179.019 266.063 185.44 275.338 190.435 285.683C190.435 285.683 190.791 286.397 191.148 287.11Z" fill="url(#paint2_linear_4_2)"/>
<defs>
<linearGradient id="paint0_linear_4_2" x1="189.528" y1="329.352" x2="191.803" y2="124.629" gradientUnits="userSpaceOnUse">
<stop offset="0.591346" stop-color="#DD4646"/>
<stop offset="1" stop-color="#D42C2C"/>
</linearGradient>
<linearGradient id="paint1_linear_4_2" x1="260.749" y1="404.714" x2="263.059" y2="200.642" gradientUnits="userSpaceOnUse">
<stop offset="0.591346" stop-color="#DD4646"/>
<stop offset="1" stop-color="#D42C2C"/>
</linearGradient>
<linearGradient id="paint2_linear_4_2" x1="225.137" y1="374.823" x2="227.737" y2="161.006" gradientUnits="userSpaceOnUse">
<stop offset="0.591346" stop-color="#DD4646"/>
<stop offset="1" stop-color="#D42C2C"/>
</linearGradient>
</defs>
</svg>
